# xmcd
#
# Track frame offsets:
#	150
#	19738
#	42194
#	62677
#	79987
#	94745
#	113605
#
# Disc length: 1740 seconds
#
# Revision: 0
# Processed by: cddbd v1.5.1PL0 Copyright (c) Steve Scherf et al.
# Submitted via: audiograbber 1.81.01
#
DISCID=4e06ca07
DTITLE=Таисия Повалий+Николай Басков - Отпусти меня
DYEAR=2004
DGENRE=Pop
TTITLE0=Отпусти меня
TTITLE1=Я буду руки твои целовать
TTITLE2=Ах, счастье
TTITLE3=Река судьбы
TTITLE4=Ти моя Укра1на
TTITLE5=Червона Рута
TTITLE6=Ах, эта ночь
EXTD=
EXTT0=
EXTT1=
EXTT2=
EXTT3=
EXTT4=
EXTT5=
EXTT6=
PLAYORDER=
